<svg xmlns="http://www.w3.org/2000/svg" style="display:none">

  <symbol id="icon-website" viewBox="0 0 20 20" fill="none" stroke="currentColor" stroke-width="1.5" stroke-linecap="round" stroke-linejoin="round">
    <circle cx="10" cy="10" r="8.5"/>
    <path d="M10 1.5C10 1.5 7 5.5 7 10s3 8.5 3 8.5M10 1.5C10 1.5 13 5.5 13 10s-3 8.5-3 8.5"/>
    <line x1="1.5" y1="10" x2="18.5" y2="10"/>
    <path d="M2.5 6.5h15M2.5 13.5h15"/>
  </symbol>

  <symbol id="icon-scholar" viewBox="0 0 20 20" fill="none" stroke="currentColor" stroke-width="1.5" stroke-linecap="round" stroke-linejoin="round">
    <path d="M3 6l7-4 7 4-7 4-7-4z"/>
    <path d="M17 6v5.5"/>
    <path d="M7 9.5V14a5 5 0 0 0 6 0V9.5"/>
    <circle cx="17" cy="13" r="1.5" fill="currentColor" stroke="none"/>
  </symbol>

</svg>
